<?xml version="1.0" encoding="utf-8"?>
<!-- Generator: Adobe Illustrator 24.0.3, SVG Export Plug-In . SVG Version: 6.00 Build 0)  -->
<svg version="1.1" id="Layer_1" xmlns="http://www.w3.org/2000/svg" xmlns:xlink="http://www.w3.org/1999/xlink" x="0px" y="0px"
	 width="38.4px" height="9.8px" viewBox="0 0 38.4 9.8" style="enable-background:new 0 0 38.4 9.8;" xml:space="preserve">
<style type="text/css">
	.st0{fill:#FFFFFF;}
</style>
<path class="st0" d="M3,4c0.1,0,0.2,0,0.3,0c7,0,27.2,0,34.2,0c0.7,0,1.1,0.5,0.9,1.1c-0.1,0.4-0.4,0.6-0.9,0.6
	c-2.3,0-29.6,0-34.3,0c-0.1,0-0.2,0-0.3,0C3,5.8,3.1,5.9,3.2,6c0.8,0.8,1.5,1.5,2.3,2.3c0.2,0.2,0.3,0.5,0.2,0.9
	C5.6,9.5,5.4,9.7,5,9.7C4.7,9.8,4.4,9.6,4.2,9.4C3.1,8.3,2,7.2,0.9,6.1C0.7,5.9,0.5,5.7,0.3,5.6c-0.5-0.5-0.5-0.9,0-1.4
	C1.1,3.5,1.8,2.7,2.5,2c0.6-0.6,1.1-1.1,1.7-1.7c0.4-0.4,0.9-0.4,1.3,0c0.3,0.3,0.3,0.9-0.1,1.2C4.6,2.3,3.8,3.1,3,4C3,4,3,4,3,4z"
	/>
</svg>
