<svg xmlns="http://www.w3.org/2000/svg" xmlns:xlink="http://www.w3.org/1999/xlink" width="171.9" height="14.9"><g fill="#fff"><use xlink:href="#B"/><path d="M49.3 9.9c.2.2.5.3.8.3v.8c0 .4-.2.6-.5.7s-.6.1-.9-.1c-.5-.2-.8-.5-1.1-.9-.3-.5-.5-1-.5-1.7V1c0-.6.3-.9.9-.9h.8V9c.1.3.3.7.5.9zm8.8-6.1c.8.7 1.3 1.6 1.3 2.6v5.3h-.5c-.4 0-.7-.2-1-.7-.7.7-1.7.9-2.6.9-1.1 0-2-.3-2.8-1s-1.3-1.5-1.3-2.6v-2c0-1 .4-1.9 1.3-2.6.8-.7 1.7-1 2.8-1 1.1.1 2 .4 2.8 1.1zm-2.8.7c-.7 0-1.3.2-1.8.6-.4.4-.6.8-.6 1.3v2c0 .5.2.9.6 1.3.5.4 1.1.6 1.8.6s1.2-.3 1.7-.7c.4-.4.6-.8.6-1.3v-2c0-.5-.2-.9-.6-1.3-.5-.3-1-.5-1.7-.5zM71.7 4c0-.6.3-.9.9-.9h.8v5.3c0 1.1-.3 2-.9 2.6S71 12 70 12c-1.1 0-1.9-.4-2.6-1.1-.7.7-1.5 1.1-2.6 1.1s-1.9-.3-2.5-1c-.6-.6-.9-1.5-.9-2.6V4c0-.6.3-.9.9-.9h.7v5.3c0 .6.2 1.1.4 1.4.3.3.7.4 1.3.4.5 0 .9-.2 1.3-.5.3-.3.5-.8.5-1.4V4c0-.6.3-.9.9-.9h.8v5.3c0 .6.2 1 .5 1.4.3.3.7.5 1.3.5s1-.2 1.3-.4c.3-.3.4-.8.4-1.4V4zm11.2-.9l-3.3 9.4-.6 1.2c-.2.4-.6.6-1 .8-.3.1-.6.2-.9.1s-.5-.3-.5-.7v-.8c.2 0 .4-.1.6-.1.2-.1.4-.2.4-.4l.3-.9c-.5-.1-.9-.4-1-.8l-2.5-7.1c-.1-.2-.1-.4 0-.5.1-.2.2-.2.5-.2H76l2.5 7.1 2.3-6.5c.2-.4.5-.6.9-.6h1.2zm7 .1c.4.2.8.5 1.1.9.3.5.5.9.5 1.5 0 .5-.1.9-.3 1.3-.2.3-.4.6-.7.8s-.6.4-1 .5c-.3.1-.7.2-1.1.2H86c-.1 0-.2-.1-.3-.1V9c0 .4.2.7.6 1 .3.2.7.3 1.2.3.4.1.8 0 1.2-.1.3-.1.6-.2.8-.4l.2-.2c.3-.3.6-.4 1-.2l.8.4c-.2.4-.4.7-.6.9-.4.4-.9.7-1.5.9-.5.2-1.1.3-1.7.3-.5 0-.9-.1-1.3-.1-.5-.1-.9-.3-1.2-.5-.4-.3-.7-.7-1-1.1-.2-.4-.3-.9-.3-1.5V5.9c0-.4.1-.8.3-1.3a3.16 3.16 0 0 1 1.4-1.4c.6-.3 1.3-.4 2-.4.8 0 1.6.1 2.3.4zm-.7 3.2c.3-.2.4-.4.5-.7 0-.3-.1-.6-.3-.8-.3-.3-.8-.4-1.3-.4s-.9 0-1.3.1c-.3.1-.6.2-.8.4-.3.2-.4.5-.4.8v.8h2.8c.3 0 .6 0 .8-.2zm3.8-.3c0-1 .3-1.8 1-2.3.5-.5 1.2-.7 1.9-.7H97v.8c0 .6-.3.9-.9.9h-.2c-.3 0-.6.1-.8.3-.3.2-.4.6-.4 1v5.6h-.8c-.6 0-.9-.3-.9-.9V6.1zM108.2 5c-.3-.3-.7-.4-1.3-.4-.5 0-1 .2-1.3.5-.3.4-.5.8-.5 1.4v5.3h-.8c-.6 0-.9-.3-.9-.9V6.4c0-.6-.2-1-.5-1.4-.3-.3-.7-.5-1.3-.5s-1 .2-1.3.4c-.3.3-.4.8-.4 1.4v5.3h-.8c-.6 0-.9-.3-.9-.9V6.4c0-1.1.3-1.9.9-2.6s1.5-1 2.5-1c.9 0 1.6.3 2.2.8l.3.3.3-.3c.6-.5 1.4-.8 2.3-.8 1.1 0 1.9.3 2.5 1 .6.6.9 1.5.9 2.6v5.3h-.8c-.6 0-.9-.3-.9-.9V6.4c.2-.7 0-1.1-.2-1.4zm10.7-1.2c.8.7 1.3 1.6 1.3 2.6v5.3h-.5c-.4 0-.7-.2-1-.7-.7.7-1.7.9-2.6.9-1.1 0-2-.3-2.8-1S112 9.4 112 8.3v-2c0-1 .4-1.9 1.3-2.6.8-.7 1.7-1 2.8-1 1.1.1 2 .4 2.8 1.1zm-2.8.7c-.7 0-1.3.2-1.8.6-.4.4-.6.8-.6 1.3v2c0 .5.2.9.6 1.3.5.4 1.1.6 1.8.6s1.3-.2 1.8-.6c.4-.4.6-.8.6-1.3v-2c0-.5-.2-.9-.6-1.3-.6-.4-1.1-.6-1.8-.6zm6 1.6c0-1 .3-1.8 1-2.3.5-.5 1.2-.7 1.9-.7h1.1v.8c0 .6-.3.9-.9.9h-.2c-.3 0-.6.1-.8.3-.3.2-.4.6-.4 1v5.6h-.8c-.6 0-.9-.3-.9-.9V6.1zm5.4-5.2c0-.6.3-.9.9-.9h.8v6.6h.6c.3 0 .7 0 .9-.3l1.6-2.6c.3-.4.6-.6 1-.6h1.3l-2 3.3c-.1.2-.2.4-.3.5.6.3 1 .7 1.3 1.4l1.5 3.3H134c-.5 0-.8-.2-1-.5L132 9a1 1 0 0 0-1-.6h-1.8v3.3h-.8c-.6 0-.9-.3-.9-.9V.9zm14.6 2.3c.4.2.8.5 1.1.9.3.5.5.9.5 1.5 0 .5-.1.9-.3 1.3-.2.3-.4.6-.7.8s-.6.4-1 .5c-.3.1-.7.2-1.1.2h-2.4c-.1 0-.2-.1-.3-.1V9c0 .4.2.7.6 1 .3.2.7.3 1.2.3.4.1.8 0 1.2-.1.3-.1.6-.2.8-.4l.2-.2c.3-.3.6-.4 1-.2l.8.4c-.2.4-.4.7-.6.9-.4.4-.9.7-1.5.9-.5.2-1.1.3-1.7.3-.5 0-.9-.1-1.3-.1-.5-.1-.9-.3-1.2-.5-.4-.3-.7-.7-1-1.1-.2-.4-.3-.9-.3-1.5V5.9c0-.4.1-.8.3-1.3a3.16 3.16 0 0 1 1.4-1.4c.6-.3 1.3-.4 2-.4.8 0 1.6.1 2.3.4zm-.7 3.2c.3-.2.4-.4.5-.7 0-.3-.1-.6-.3-.8-.3-.3-.8-.4-1.3-.4s-.9 0-1.3.1a2.47 2.47 0 0 0-.9.4c-.3.2-.4.5-.4.8v.8h2.8c.4 0 .7 0 .9-.2zm7.6-3.3v.8c0 .6-.3.9-.9.9H147v4.1c0 .4.1.8.4 1 .2.2.5.3.8.3v.8c0 .4-.2.6-.5.7s-.6.1-.9-.1c-.5-.2-.8-.5-1.1-.9-.3-.5-.4-1-.4-1.7V1c0-.6.3-.9.9-.9h.8v3.1h2z"/><use xlink:href="#B" x="107.1"/><path d="M155.4 3.8c.8-.6 1.7-1 2.7-1s2 .3 2.7 1c.8.7 1.2 1.5 1.2 2.5v5.4h-.8c-.6 0-.9-.3-.9-.9V6.2c0-.4-.2-.8-.6-1.1-.4-.4-1-.6-1.6-.6s-1.2.2-1.6.6c-.4.3-.6.7-.6 1.1v5.4h-.8c-.6 0-.9-.3-.9-.9V6.2a2.98 2.98 0 0 1 1.2-2.4zm15.2 0c.8.7 1.3 1.6 1.3 2.6v5.2c0 .5-.1 1-.3 1.4-.4.9-1.3 1.4-2.1 1.7-.5.1-1 .2-1.5.2s-.9-.1-1.3-.1c-.4-.1-.7-.2-.8-.4s-.1-.4 0-.7l.2-.7c.4.2.9.3 1.5.3s1.1-.1 1.5-.2c.8-.2 1.2-.7 1.2-1.5v-.3c-.7.5-1.5.7-2.4.7-1.1 0-2-.3-2.8-1s-1.3-1.5-1.3-2.6v-2c0-1 .4-1.9 1.3-2.6.8-.7 1.7-1 2.8-1a3.94 3.94 0 0 1 2.7 1zm-2.8.7c-.7 0-1.3.2-1.8.6-.4.4-.6.8-.6 1.3v2c0 .5.2.9.6 1.3.5.4 1.1.6 1.8.6s1.3-.2 1.8-.6c.4-.4.6-.8.6-1.3v-2c0-.5-.2-.9-.6-1.3-.5-.4-1.1-.6-1.8-.6zM3.4 6.3c0-.7-.1-1.5-.9-1.5-.5 0-.8.2-.8.8s.4.9.9 1.2l1.8 1.3c.5.6.6 1.1.6 1.8 0 1.6-1 2.4-2.5 2.4-1.8 0-2.5-1-2.5-2.5v-.7h1.5v.5c0 .8.2 1.4 1 1.4.6 0 1-.3 1-1 0-.5-.2-.8-.6-1.1C2 8.3 1 7.9.4 7 .2 6.7 0 6.2 0 5.8c0-1.4.8-2.2 2.4-2.2 2.5 0 2.4 1.9 2.4 2.7H3.4zM6.8 12V3.8h1.5V12H6.8zm2.9-8.2h5.1V5H13v7h-1.5V5H9.7V3.8zm6.4 8.2V3.8h4.3V5h-2.8v2.1h2.6v1.2h-2.6v2.5h2.8V12h-4.3zm9.2 0V3.8h2.5c.7 0 1.3 0 1.7.6.4.5.4.9.4 1.5 0 .7-.2 1.4-1 1.7.9.1 1.2.8 1.2 1.9 0 .3 0 .7-.1 1-.3 1-.9 1.5-2 1.5h-2.7zm1.8-4.9c.4 0 .9 0 1.1-.3.1-.2.2-.5.2-.9 0-.6-.1-.9-.8-.9h-.7v2.1h.2zm0 3.7c.3 0 .6 0 .9-.1.4-.2.5-.7.5-1.1 0-.9-.2-1.3-1.1-1.3h-.6v2.5h.3zM33.8 6c.2.4.3.8.4 1.3.1-.6.3-1.1.5-1.6l.7-1.9h1.7l-2.2 4.7V12h-1.5V8.5l-2.1-4.7H33l.8 2.2z"/></g><defs ><path id="B" d="M44.2 0h.8v.8c0 .6-.3.9-.9.9h-.8V.9c0-.6.3-.9.9-.9zm-.9 4c0-.6.3-.9.9-.9h.8v8.6h-.8c-.6 0-.9-.3-.9-.9V4z"/></defs></svg>