<svg xmlns="http://www.w3.org/2000/svg" viewBox="0 0 1100.64 692.65">
  <defs>
    <style>
      .cls-1 {
        fill: #06171d;
      }
    </style>
  </defs>
  <title>Asset 1</title>
  <g id="Layer_2" data-name="Layer 2">
    <g id="Layer_1-2" data-name="Layer 1">
      <path class="cls-1" d="M0,42.25v650.4H1100.6V42.25Zm92.9,63,309.1,103a52.38,52.38,0,0,0-14,18.3l-.8,1.8a50.69,50.69,0,0,0-3.9,18.9,51.82,51.82,0,0,0,13.3,35.4,51,51,0,0,0,39.2,17c27.9-.4,50.7-24.1,50.7-52.8v-42.8a59.5,59.5,0,0,1,67.6-59l13.8,1.7c40.3,4.7,57.7,9.7,74.3,27.2l3.3,3.5,1.6,4.5a83.35,83.35,0,0,1,1.6,42.7l-5.5,23.9s-7.2-11.6-19.4-15.7c-17.1-5.9-17.9,11.8-10.6,28.3,2.7,6.2,6.5,14.9,16,24a53.46,53.46,0,0,0,37.9,14.4c26.6-1.1,48.4-22.7,49.5-49.3a50.17,50.17,0,0,0-3.8-22l-.8-1.8a53.59,53.59,0,0,0-14-18.3l308.6-103.1a44.28,44.28,0,0,1-28,56l-219,73a89.81,89.81,0,0,1,.9,18c-2.2,49.4-42.6,89.7-92,91.6-1.3.1-2.6.1-3.9.1a95.46,95.46,0,0,1-73.2-34c-1-1.3-2.1-2.6-3.1-3.9a119.27,119.27,0,0,1-11.5-18c-7.9-14.4-21-45.5-5.9-71.1,4-6.7,12.2-16.5,28-20.9-5.1-1-50.8-7-51.1-7a14.93,14.93,0,0,0-12,3.6,15.33,15.33,0,0,0-5.2,11.5v44.3c-.7,52-42.7,94.7-94.2,95.6a95.74,95.74,0,0,1-96.5-109.6l-219-73a44.28,44.28,0,0,1-28-56Zm368.6,377.6-6.8-6.4a4.62,4.62,0,0,0-6.6.2l-12.6,13.4c-1.8,1.8-2.2,4.2.2,6.6l12.7,11.1-41.9,10.5a28.62,28.62,0,0,1-1.1-40.5L449.7,431l10.6,10.1a29.56,29.56,0,0,1,1.2,41.8Zm75.1,148.8a44.32,44.32,0,0,1-44.3-44.3V471.55c16.4,16.8,29.8,24.9,33.8,27.1l10.5,6.3Zm70.9-44.4a44.32,44.32,0,0,1-44.3,44.3V505l10.5-6.3c3.9-2.2,17.4-10.3,33.8-27.1v115.7Zm85.7-68.9-41.9-10.5,12.7-11.2c2.4-2.4,2-4.7.2-6.6l-12.6-13.4a4.62,4.62,0,0,0-6.6-.2l-6.8,6.4a29.65,29.65,0,0,1,1.2-41.8L650.1,431l44.2,46.9a28.62,28.62,0,0,1-1.1,40.5Zm338.6-192.7-6.6,11a54.23,54.23,0,0,1-53.5,25.7l-167.8-22.3a159.48,159.48,0,0,1-14.4,18.6l152.8,57.4-30.7,10.5a103.27,103.27,0,0,1-70-1l-91.4-34.3a175.52,175.52,0,0,1-19.3,9.9l72.4,48.1-44.6.8a106.35,106.35,0,0,1-60.9-17.8l-26.6-17.6c-2.2.1-4.4.1-6.5.1a168.28,168.28,0,0,1-43.8-5.8c-27.3,48.3-59,65.9-60.6,66.8l-10.5,6.3-10.5-6.3c-1.6-.9-33.3-18.5-60.6-66.8a164.05,164.05,0,0,1-43.8,5.8c-2.2,0-4.4,0-6.5-.1l-26.6,17.6a106.35,106.35,0,0,1-60.9,17.8l-44.6-.8,72.4-48.1a175.52,175.52,0,0,1-19.3-9.9L258,425.55a103.87,103.87,0,0,1-70,1l-30.7-10.5,152.9-57.4a159.48,159.48,0,0,1-14.4-18.6L128,362.35a54.24,54.24,0,0,1-53.5-25.7l-6.6-11,207.9-27.6a182.33,182.33,0,0,1-5.3-22.1L98.1,259.55a45.25,45.25,0,0,1-40.9-48.3l255.7,24.4c-.2,3.4-1.5,18.1,1,32A123,123,0,0,0,430,370.55c1.7.1,3.3.1,5,.1a123.22,123.22,0,0,0,30.4-3.8l.4-.2A122.89,122.89,0,0,0,501.5,351c12.8,41.5,36.3,67.4,48.4,78,12-10.6,35.6-36.5,48.4-78a121.72,121.72,0,0,0,35.7,15.7l.4.2a123.22,123.22,0,0,0,30.4,3.8c1.7,0,3.3,0,5-.1a123,123,0,0,0,116.1-102.9c2.5-13.9,1.3-28.7,1-32,0-.1,255.7-24.4,255.7-24.4a45.25,45.25,0,0,1-40.9,48.3L829.3,276a182.33,182.33,0,0,1-5.3,22.1l207.8,27.6Z"/>
      <rect class="cls-1" x="0.1" width="1100.54" height="59.45"/>
    </g>
  </g>
</svg>
