<svg xmlns="http://www.w3.org/2000/svg" width="986.6" height="527.4" fill="none" stroke="#06171d" stroke-width=".25" stroke-miterlimit="10"><path d="M593.5 326.3l-10.7 10.1c-11.8 11.2-12.4 29.9-1.2 41.8l6.8-6.4c1.9-1.8 4.9-1.7 6.6.2l12.6 13.4c1.8 1.9 2.2 4.2-.2 6.6l-12.7 11.2 41.9 10.5c11.5-10.9 12-29 1.1-40.5l-44.2-46.9zm-200.4 0l-44.3 46.8c-10.9 11.5-10.4 29.7 1.1 40.5l41.9-10.5-12.7-11.1c-2.4-2.4-2-4.8-.2-6.6l12.6-13.4c1.8-1.9 4.8-2 6.6-.2l6.8 6.4c11.2-11.9 10.7-30.5-1.2-41.8l-10.6-10.1zm124 67.7l-10.5 6.3v126.6c24.4 0 44.3-19.8 44.3-44.3V366.9c-16.4 16.8-29.9 24.9-33.8 27.1zm-81.4-27.1v115.8c0 24.4 19.8 44.3 44.3 44.3V400.3l-10.5-6.3c-4-2.2-17.4-10.3-33.8-27.1zm337-195.6l172.4-16.4c24.5-2.3 42.7-23.8 40.9-48.3L730.3 131c.3 3.3 1.5 18.1-1 32-4.1 25.5-16 48.7-34.6 67.2-21.9 21.8-50.8 34.5-81.5 35.7-1.7.1-3.3.1-5 .1a122.92 122.92 0 0 1-30.4-3.8l-.4-.2c-12.8-3.3-24.9-8.7-35.7-15.7-12.8 41.5-36.4 67.4-48.4 78-12.1-10.6-35.6-36.5-48.4-78-10.9 7-22.9 12.4-35.7 15.7l-.4.2a122.92 122.92 0 0 1-30.4 3.8c-1.7 0-3.3 0-5-.1-30.7-1.2-59.6-13.9-81.5-35.7-18.5-18.4-30.4-41.6-34.6-67.2-2.5-13.9-1.2-28.6-1-32L.6 106.6c-1.8 24.5 16.4 46 40.9 48.3l172.4 16.4c1.3 7.5 3.1 14.9 5.3 22.1L11.3 221l6.6 11C29 250.4 50 260.5 71.4 257.7l167.8-22.3c4.3 6.5 9.1 12.7 14.4 18.6l-152.9 57.4 30.7 10.5c22.8 7.8 47.5 7.4 70-1l91.4-34.3c6.2 3.7 12.7 7 19.3 9.9l-72.4 48.1 44.6.8c21.6.4 42.9-5.8 60.9-17.8l26.6-17.6c2.1.1 4.3.1 6.5.1 15 0 29.7-1.9 43.8-5.8 27.3 48.3 59 65.9 60.6 66.8l10.5 6.3 10.5-6.3c1.6-.9 33.3-18.5 60.6-66.8a168.2 168.2 0 0 0 43.8 5.8c2.1 0 4.3 0 6.5-.1l26.6 17.6c18 12 39.3 18.2 60.9 17.8l44.6-.8-72.4-48.1c6.6-2.9 13.1-6.2 19.3-9.9l91.4 34.3c22.5 8.5 47.3 8.8 70 1l30.7-10.5L732.9 254c5.3-5.9 10.1-12.1 14.4-18.6l167.8 22.3c21.3 2.8 42.3-7.2 53.5-25.7l6.6-11-207.8-27.6c2.2-7.2 4-14.6 5.3-22.1zM64.3 56.6l219 73c-.9 6.1-1.2 12.2-.9 18.5 1 22.1 9.8 43.3 24.7 59.6 18.9 20.7 44.9 32 72.7 31.5 51.5-.9 93.5-43.6 94.2-95.6V99.3c0-6 3.3-9.8 5.2-11.5a14.96 14.96 0 0 1 12-3.6c.3 0 46 6 51.1 7-15.8 4.4-24 14.2-28 20.9-15.1 25.6-2 56.7 5.9 71.1 2.7 5.1 5.9 10.7 11.5 18 1 1.3 2.1 2.6 3.1 3.9 18.7 21.9 45 34 73.2 34 1.3 0 2.6 0 3.9-.1 49.4-1.9 89.8-42.2 92-91.6.3-6.1 0-12.1-.9-18l219-73c23.2-7.7 35.7-32.8 28-56L641.4 103.5c5.9 5 10.7 11.2 14 18.3l.8 1.8c2.9 7 4.2 14.4 3.8 22-1.1 26.6-22.9 48.2-49.5 49.3-14.2.5-28.4-5.3-37.9-14.4s-13.3-17.8-16-24c-7.3-16.5-6.5-34.2 10.6-28.3 12.2 4.1 19.4 15.7 19.4 15.7l5.5-23.9c5.1-22.1-.9-40.6-1.6-42.7l-1.6-4.5-3.3-3.5c-16.6-17.5-34-22.5-74.3-27.2l-13.8-1.7c-17-2.3-34.2 2.8-47.2 14.1s-20.4 27.7-20.4 44.9v42.8c0 28.7-22.8 52.4-50.7 52.8-15 .3-29.1-5.8-39.2-17-8.7-9.6-13.5-22.4-13.3-35.4.1-6.6 1.4-12.9 3.9-18.9l.8-1.8c3.2-7.1 8.1-13.3 14-18.3L36.3.6c-7.7 23.2 4.8 48.3 28 56z"/></svg>