<svg xmlns="http://www.w3.org/2000/svg" width="1100" height="650"><path d="M.1-1.1v650.4h1100.6V-1.1H.1zm92.9 63l309.1 103c-5.9 5-10.8 11.2-14 18.3l-.8 1.8c-2.5 6-3.8 12.3-3.9 18.9-.2 13 4.6 25.8 13.3 35.4 10.1 11.2 24.2 17.3 39.2 17 27.9-.4 50.7-24.1 50.7-52.8v-42.8c0-17.2 7.4-33.6 20.4-44.9s30.2-16.4 47.2-14.1l13.8 1.7c40.3 4.7 57.7 9.7 74.3 27.2l3.3 3.5 1.6 4.5c.7 2.1 6.7 20.6 1.6 42.7l-5.5 23.9s-7.2-11.6-19.4-15.7c-17.1-5.9-17.9 11.8-10.6 28.3 2.7 6.2 6.5 14.9 16 24s23.7 14.9 37.9 14.4c26.6-1.1 48.4-22.7 49.5-49.3.4-7.6-.9-15-3.8-22l-.8-1.8c-3.3-7.1-8.1-13.3-14-18.3l308.6-103.1c7.7 23.2-4.8 48.3-28 56l-219 73c.9 5.9 1.2 11.9.9 18-2.2 49.4-42.6 89.7-92 91.6-1.3.1-2.6.1-3.9.1-28.2 0-54.5-12.1-73.2-34-1-1.3-2.1-2.6-3.1-3.9-5.6-7.3-8.8-12.9-11.5-18-7.9-14.4-21-45.5-5.9-71.1 4-6.7 12.2-16.5 28-20.9-5.1-1-50.8-7-51.1-7a14.96 14.96 0 0 0-12 3.6c-1.9 1.7-5.2 5.5-5.2 11.5v44.3c-.7 52-42.7 94.7-94.2 95.6-27.8.5-53.8-10.8-72.7-31.5-14.9-16.3-23.7-37.5-24.7-59.6-.3-6.3 0-12.4.9-18.5l-219-73c-23.2-7.7-35.7-32.8-28-56zm368.6 377.6l-6.8-6.4c-1.8-1.8-4.8-1.7-6.6.2l-12.6 13.4c-1.8 1.8-2.2 4.2.2 6.6l12.7 11.1-41.9 10.5c-11.5-10.8-12-29-1.1-40.5l44.3-46.8 10.6 10.1c11.9 11.3 12.4 29.9 1.2 41.8zm75.1 148.8c-24.5 0-44.3-19.9-44.3-44.3V428.2c16.4 16.8 29.8 24.9 33.8 27.1l10.5 6.3v126.7zm70.9-44.4c0 24.5-19.9 44.3-44.3 44.3V461.6l10.5-6.3c3.9-2.2 17.4-10.3 33.8-27.1v115.7zm85.7-68.9l-41.9-10.5 12.7-11.2c2.4-2.4 2-4.7.2-6.6l-12.6-13.4c-1.7-1.9-4.7-2-6.6-.2l-6.8 6.4c-11.2-11.9-10.6-30.6 1.2-41.8l10.7-10.1 44.2 46.9c10.9 11.5 10.4 29.6-1.1 40.5zm338.6-192.7l-6.6 11c-11.2 18.5-32.2 28.5-53.5 25.7L804 296.7c-4.3 6.5-9.1 12.7-14.4 18.6l152.8 57.4-30.7 10.5c-22.7 7.8-47.5 7.5-70-1l-91.4-34.3c-6.2 3.7-12.7 7-19.3 9.9l72.4 48.1-44.6.8c-21.6.4-42.9-5.8-60.9-17.8l-26.6-17.6c-2.2.1-4.4.1-6.5.1a168.2 168.2 0 0 1-43.8-5.8c-27.3 48.3-59 65.9-60.6 66.8l-10.5 6.3-10.5-6.3c-1.6-.9-33.3-18.5-60.6-66.8-14.1 3.9-28.8 5.8-43.8 5.8-2.2 0-4.4 0-6.5-.1l-26.6 17.6c-18 12-39.3 18.2-60.9 17.8l-44.6-.8 72.4-48.1c-6.6-2.9-13.1-6.2-19.3-9.9l-91.4 34.3c-22.5 8.4-47.2 8.8-70 1l-30.7-10.5 152.9-57.4c-5.3-5.9-10.1-12.1-14.4-18.6L128.1 319c-21.4 2.8-42.4-7.3-53.5-25.7l-6.6-11 207.9-27.6c-2.2-7.2-4-14.6-5.3-22.1L98.2 216.2c-24.5-2.3-42.7-23.8-40.9-48.3L313 192.3c-.2 3.4-1.5 18.1 1 32 4.2 25.6 16.1 48.8 34.6 67.2 21.9 21.8 50.8 34.5 81.5 35.7 1.7.1 3.3.1 5 .1a122.92 122.92 0 0 0 30.4-3.8l.4-.2c12.8-3.3 24.8-8.7 35.7-15.7 12.8 41.5 36.3 67.4 48.4 78 12-10.6 35.6-36.5 48.4-78 10.8 7 22.9 12.4 35.7 15.7l.4.2a122.92 122.92 0 0 0 30.4 3.8c1.7 0 3.3 0 5-.1 30.7-1.2 59.6-13.9 81.5-35.7 18.6-18.5 30.5-41.7 34.6-67.2 2.5-13.9 1.3-28.7 1-32 0-.1 255.7-24.4 255.7-24.4 1.8 24.5-16.4 46-40.9 48.3l-172.4 16.4c-1.3 7.5-3.1 14.9-5.3 22.1l207.8 27.6z" fill="#06171d"/></svg>