<svg xmlns="http://www.w3.org/2000/svg" xmlns:xlink="http://www.w3.org/1999/xlink" width="256" height="174.8"><style><![CDATA[.D{fill:#06171d}.E{fill:#be2623}]]></style><path d="M256 32c0-4.1-3.2-5.8-5-6.2L133.2.4c-4.5-1-9-.1-9.2 0L5.4 25.4c-4 .8-5.1 4.4-5.1 6.2L0 146c0 3.6 3.2 5.2 5 5.6l117.8 22.8c4.5.9 9 .1 9.2 0L250.6 152c4-.8 5.1-4 5.1-5.6L256 32z" fill="#fff"/><g class="D"><path d="M37.6 125.4l2.1 5.5c.1.4.3.6.4.8h-1.4c0-.1 0-.2-.1-.4l-.8-2.1h-2.7l-.9 2.3v.1h-.9l2.6-6.3c.3-.9 1-.8 1.4-.9l.3 1m-1.1.3l-1.2 3h2.3l-1.1-3zm7.2 6v-2.8c0-1.8.1-3.5-.3-4l.1-.2 2.2-.1c1.2 0 2.6.4 2.6 2.1 0 .9-.7 1.7-1.6 2 .3.1 2.4 2.6 2.7 2.8h-1.6c-.4-.8-1.5-1.9-2.3-2.6-.2 0-.4 0-.6-.1l.1 2.7h-1.3zm3.6-4.7c0-1.4-1-1.8-1.7-1.8H45v3.1c.2.1.4.1.7.1.8.1 1.6-.5 1.6-1.4m5.7 4.7v-5.6c0-.8-.2-1-.3-1.2l.1-.2s.4-.1.8-.1c.2 0 .4 0 .7.1-.1 1.2-.1 2.7-.1 4.2l.1 2.8H53zm5-.2l.3-.3 3.9-5.5.4-.4H60c-.7 0-1.2.2-1.2.6h-.2c-.1-.1-.2-.9.2-1.2l1.6.1h3.9v.2l-.3.3-3.8 5.4-.3.3h2.7c.7 0 1.2-.2 1.2-.6h.2c.1.1.2.9-.2 1.3H58v-.2zm13-6.9c1.7 0 3.1 1.2 3.1 3.5 0 2.1-1.5 3.7-3.8 3.7-1.5 0-3-1.2-3-3.5 0-2.2 1.6-3.7 3.7-3.7m-.2 6.6c1.1 0 2-1.2 2-2.8 0-1.7-1-3.2-2.2-3.2-1.1 0-2 1.2-2 2.7 0 1.7 1 3.3 2.2 3.3m13-5.2c0-.6-.1-.9-.3-1.1l.1-.2c.1-.1.4-.1.6-.1s.4 0 .5.1c-.1 1.4-.1 3.3-.1 5 0 .8 0 1.5.1 2H84l-4.4-4.6s-.4-.5-.5-.7v2.1l.1 3.2h-.8V126c0-.6-.1-.8-.3-1.1l.1-.2c.2-.1.4-.2.7-.1l4.6 4.8c.2.2.4.7.4.7s-.1-.4-.1-.7V126m8.7-.6l2.1 5.5c.1.4.3.6.4.8h-1.4c0-.1 0-.2-.1-.4l-.8-2.1H90l-.9 2.3v.1h-.9l2.6-6.3c.3-.9 1-.8 1.4-.9l.3 1m-1.1.3l-1.2 3h2.3l-1.1-3zm13.2 6v-5.6c0-.8-.2-1-.3-1.2l.1-.2s.4-.1.8-.1c.2 0 .4 0 .7.1-.1 1.2-.1 2.7-.1 4.2l.1 2.8h-1.3zm11.6-5.7c0-.6-.1-.9-.3-1.1l.1-.2c.1-.1.3-.1.6-.1.2 0 .4 0 .5.1-.1 1.4-.1 3.3-.1 5 0 .8 0 1.5.1 2h-.6l-4.4-4.6s-.4-.5-.5-.7v2.1l.1 3.2h-.8V126c0-.6-.1-.8-.3-1.1l.1-.2c.2-.1.4-.2.7-.1l4.6 4.8c.2.2.4.7.4.7s-.1-.4-.1-.7c-.2 0-.1 0-.1-3.4m4 7.7c-.6 0-1-.4-1-.7 0-.2.2-.5.6-.5h.3c0 .2.2.4.6.4.9 0 1.2-.7 1.2-2v-5c0-.8-.2-1-.3-1.2l.1-.2s.4-.1.8-.1c.2 0 .4 0 .7.1-.1 1.2-.1 2.7-.1 4.2v2.2c-.2 1.9-1.6 2.8-2.9 2.8m10.5-1.9c-1.6 0-2.8-.5-2.8-2.4l-.1-3.4c0-.8-.2-1-.3-1.2l.1-.2s.4-.1.8-.1c.2 0 .4 0 .7.1-.1 1.3-.1 3.1-.1 4.6 0 1.6 1.1 1.8 1.8 1.8 1.2 0 2-.6 2.1-1.4v-3.7c0-.6-.1-.9-.3-1.1l.1-.2c.1-.1.4-.1.6-.1s.4 0 .5.1l-.1 4.7c-.1 1.4-1.1 2.5-3 2.5"/><use xlink:href="#B"/><use xlink:href="#C"/><path d="M162 131.7v-5.6c0-.8-.2-1-.3-1.2l.1-.2s.4-.1.8-.1c.2 0 .4 0 .7.1-.1 1.2-.1 2.7-.1 4.2v2.2h1.3c.7 0 1.2-.2 1.2-.6h.2c.2.2.1.9-.1 1.1H162zm10.9-6.3l2.1 5.5c.1.4.3.6.4.8H174c0-.1 0-.2-.1-.4l-.8-2.1h-2.7l-.9 2.3v.1h-.9l2.6-6.3c.3-.9 1-.8 1.4-.9l.3 1m-1.1.3l-1.2 3h2.3l-1.1-3zm13.9 6.2l-.5-.1c-.6-.1-.8-.6-.9-.8l-1-2.9-1.2 2.9-.3.9-.5-.1c-.6-.1-.8-.6-.9-.8l-1.6-4.6c-.4-1.2-.8-1.5-.9-1.5l.1-.2c.2-.1.5-.1.8-.1s.6.1.7.2c.3 1.1 1.6 4.9 2 5.9l.2-.8 1-2.8-.2-.6c-.4-1.2-.8-1.5-.9-1.5l.1-.2c.2-.1.5-.1.8-.1s.6.1.7.2c.3 1.1 1.6 4.9 2 5.9l.2-.8 1.4-3.7c.1-.2.2-.5.2-.7s-.1-.4-.2-.6l.1-.2c.2-.1.4-.1.6-.1.3 0 .5 0 .7.1 0 .4-.3 1.1-.4 1.4L186 131l-.3.9z"/><use xlink:href="#C" x="44.6"/><path d="M200.3 124.9l.1-.2h3.8c.3.3.3 1.1.2 1.2h-.2c-.1-.3-.6-.6-1.2-.6h-1l-.1 2.6h1.8c.4 0 .4-.1.4-.1v.2c0 .6-.6.6-1 .6h-1.2v2.6h2.2c.4 0 .4-.1.4-.1v.2c0 .6-.6.6-1 .6h-2.8v-5.6c-.1-1.1-.2-1.2-.4-1.4"/><use xlink:href="#B" x="70.4"/><path d="M217.4 130.7c0-.1 0-.2.1-.3.1.3 1 .7 1.7.7s1.5-.2 1.5-1c0-1.4-3.3-1.7-3.3-3.6 0-.9.7-1.9 2.2-1.9 1 0 1.5.3 1.8.5.1.3.1.9-.2 1.2h-.2c-.3-.8-1.1-1-1.5-1-.5 0-1.1.3-1.1.9 0 1.4 3.5 1.6 3.5 3.8 0 1.1-1 2-2.5 2-1.1-.2-2-.7-2-1.3m-104.6-21.3c-.7 2.4-.9 2.8 1.8 2.8 2.5 0 3.4-.1 4.7-2.3.2-.1.4 0 .5.1-.2.7-1 2.3-1.4 2.9h-7.5l-2.3.1c-.2-.1-.2-.4 0-.5l.5-.1c1-.1 1.3-.4 2-2.6l2.5-8.1c.7-2 .7-2.4-.5-2.6l-.5-.1c-.1-.2-.1-.5.1-.5l2.5.1 2.7-.1c.2.1.2.4 0 .5l-.7.1c-1.2.2-1.3.4-2 2.6l-2.4 7.7z"/><path d="M128.8 103.6c.4-.2.9 0 1.1.3l-2.9 7.6c-.1.4 0 .5.2.5.4 0 1-.4 2.2-1.5.2 0 .3.1.3.3-.9 1.2-2.4 2.4-3.6 2.4-.5 0-.6-.4-.6-.6s0-.3.2-.8l.7-2h-.1c-1.5 1.9-3.7 3.4-4.8 3.4-.6 0-1-.6-1-1.2 0-.5.5-2.2 1.9-4.2 1-1.4 2-2.3 2.9-2.8.8-.5 1.4-.6 2-.6.2 0 .4.1.5.1s.3.2.4.5l.6-1.4zm-3.8 2.5c-1.4 1.2-2.7 4.1-2.7 5.6 0 .3.1.4.3.4s.9-.3 2.1-1.4c1.6-1.5 2.6-3.4 2.9-4.7-.2-.4-.5-.8-1.1-.8-.5 0-.8.3-1.5.9m8 0c.2-.5.2-.8-.1-.8-.4 0-1.3.7-2 1.5-.2 0-.3-.2-.3-.4.7-1 2.1-2.4 3.4-2.4.5 0 1 .6.7 1.4L133 110c-.3.8-.4 1.2-.4 1.5s.1.5.5.5c1 0 2.6-2.1 3.4-3.3.8-1.3 1.3-2.9 1.4-3.5.2-.7.6-1.2 1-1.2.5 0 .6.4.6.6 0 .5-.2.9-.8 2-.8 1.6-1.2 3.3-1.2 4.4 0 .7.3 1 .8 1 .7 0 1.8-.8 2.7-2.1.8-1.2 1.3-2.5 1.3-3.6 0-.5 0-1-.2-1.5 0-.5.4-.8.8-.8h.4c.5 0 .7.1.7.1.4.1.6.1.8.2.4.1.9.2 0 .3-.2 0-.3 0-.6.2-.2.1-.4.4-.4.6-.1 1.2-.7 3.1-2.4 5.2-1.6 1.9-3.3 2.6-4.1 2.6-.5 0-1.2-.6-1.2-1.2s.2-1.3.4-1.8c.1-.3 0-.3-.3 0-1 1.4-2.8 3.1-4.1 3.1-.6 0-1.1-.7-1.1-1.2 0-.4.2-1 .4-1.6l1.6-4.4zm-95.1.7h62.8v.6H37.9zm116.5 0h62.8v.6h-62.8zM232 62.2h-1.3l.2-20.5c0-3.1-3-3.8-3.1-3.9L131.5 17c-3.4-.7-7 0-7 0l-97 20.6c-3.1.7-3.2 3.7-3.2 3.9l-.2 20.8h-1.3l.2-20.8c0-1.5.9-4.4 4.2-5.1l97-20.6c.2 0 3.8-.8 7.5 0l96.4 20.9c1.4.3 4.1 1.8 4.1 5.1l-.2 20.4zM26.5 60.1l.2-16.7s.1-3.7 3.7-4.5l94-19.9s3.6-.8 7.3 0l93.5 20.3s3.6.8 3.6 4.5l-.3 18.2s-.1.4-.7.3h-1.9l-1-2.6-.3-2.2-1.2-1.9-.3-2.4-.3-.9v-1l-1.1.1-4.7.1-.9.9-1.2.4-.2 1.3.1 1.8-1.4.7-2 .4-1.8.2-.5 1.4-.1.7s-.1.7-.8.8l-2.1.5-1.7-.5-2.3-.2-.6-.4-.8-.7-1.3-.7-1.1-.6.2-1.3-2.6-.3-1.7-.1-1.3-.5v-2.4l-.4-3.2-.2-1.4-.1-2.3h-.8l-1.7-.1-10.7.1-2 .4-.8.5s-.8.5-2.2.6l-3.2.3h-4.6l-4.3.3-.3.7-.6 1.6-.4 3.1v1.3l-1.9 1.4s-.5.4-1.2.6l-2 .6-2.9 1.1-.3 1-.7 1.1-1.7 1.2-1.4-.7-1.3-1.1-2.3-1.5-1.5-.1s-.7-.1-1-.7l-1-1.8-1.1-.7s-1.1-.7-3.2-.8l-4.4-.2-1.4.7-1.7 1.6-1.3-.4-.4-1-.4-1.6s-.2-.7-.9-.6l-2.6.1-4.9-.4-1.1.8-1.4 2.3-1.8 1.7-.2 1.2-.2 4.4-.5.4s-.5.4-1.1.7l-2.8 1.1-1.3-.7-.2-.9-.1-3.7-.4-.2s-.4-.2-1.8-.2l-4.1.1.1-.2s.1-.2-2-.2h-3.9l-2 1.8-1.4 2.1h-1.3s-1.3 0-2.4-.8l-3-2.1-1.7.4-.6.7-2.5-.3s-2-.2-4-1l-3.2-1.3-3.1-.5.1-1.4-.4-1.2-.8-.6s-.7-.7-.9-2.1l-.3-2.8-.8-1.4-.3-1.4-1.2-.3-.1 1.9-.6 3.7-.8-.2s-.9-.2-.8-1.6v-3.4l-2-1.6.1-1.8s.1-1.8-2-1.9l-4.3-.2-.7.2s-.7.2-4.4.4l-7.2.5-.4 2.5s-.3 2-1.9 3.3l-3.5 2.9-.3 1.1s-.3 1.1-1.5 1.7l-2.9 1.6"/></g><path d="M109.9 66.5l-1.8-1-.2-1.3-.1-3.4-.1-.1s-.4-.2-1.5-.1l-4.8.1.1-.4h-4.9l-1.8 1.6-1.6 2.4-1.6-.1c-.1 0-1.4-.1-2.7-.9l-2.8-2-1.2.3-.7.8-2.6-.3c-.1 0-2.1-.2-4.1-1l-3.2-1.3-3.6-.6.2-1.9-.4-1-.7-.6s-.9-.9-1.1-2.5l-.3-2.7-.7-1.5-.3-1h-.1l-.1 1.3-.7 4.4-1.5-.4c-.1 0-1.3-.4-1.3-2.2v-3.2l-2-1.6.1-2.2c0-.2-.1-1.3-1.4-1.3l-4.2-.2-.6.2c-.1 0-.9.3-4.6.5l-6.6.3-.3 2.1c0 .1-.4 2.3-2.1 3.8l-3.4 2.8-.3.9c0 .1-.4 1.4-1.8 2.1L33.6 57l-7 4.3v-1.4l6.4-4 3-1.6c1-.5 1.3-1.4 1.3-1.4l.4-1.3 3.6-3.1c1.4-1.2 1.7-3 1.7-3l.5-3 7.5-.4 4.3-.4.8-.3 4.4.2c1.3 0 2 .7 2.3 1.3a2.99 2.99 0 0 1 .3 1.2l-.1 1.6 2 1.6V51c0 .9.4 1.1.4 1.1l.2.1.5-3.1.1-2.7 2.2.6.4 1.7.8 1.5.3 3c.1 1.1.7 1.7.7 1.8l.8.8.5 1.5-.1 1 2.7.4 3.2 1.3c1.8.7 3.8.9 3.8.9l2 .2.5-.6 2.1-.5 3.2 2.2a4.05 4.05 0 0 0 2.1.7h.9l1.3-2 2.2-2h4.1c1.9 0 2.3.2 2.4.4l3.5-.1c1.4 0 2 .2 2.1.3l1.1.5.1 4.1.1.6.8.5 2.6-1c.5-.2 1-.6 1-.6l.3-.3.1-4.3.3-1.4 1.9-1.8 1.5-2.3 1.4-1 5.1.4 2.6-.2c.9-.1 1.4.7 1.5 1.1l.4 1.7.2.6.7.2 1.6-1.5 1.5-.8 4.6.2c2.2.1 3.4.9 3.5.9l1.3.8 1.1 2c.2.3.6.4.6.4l1.7.2 2.5 1.7 1.3 1.1 1 .5 1.3-1 .6-1 .4-1.2 3.2-1.2 2-.6c.5-.2 1-.5 1-.5l1.7-1.3v-1l.4-3.4.6-1.6.5-1 4.6-.4h4.6l3.2-.3c1.2-.1 1.9-.5 1.9-.5l.9-.5 2.2-.4 10.7-.1 3.1.1.1 2.8.2 1.4.4 3.3v2.2l.9.4 1.7.1 3.3.3-.3 1.6.8.5 1.4.7.8.7.4.3 2.3.2 1.6.5 1.9-.5c.3-.1.4-.4.4-.4l.2-.8.7-1.7 2.1-.3 1.8-.3 1-.5-.1-1.5.3-1.8 1.4-.5 1-1 4.9-.1 1.7-.2-.1 1.7.3.9.3 2.3 1.2 1.9.3 2.3.7 1.6h2.2v1.2h-2.7l-1.5-2.6-.2-2.1-1.2-1.9-.3-2.5-.3-.9v-.4l-.4.1-4.5.1-.8.8-1 .3-.2.9.2 2.2-1.9.9-2 .4-1.4.2-.4 1-.1.7c-.1.4-.4 1.1-1.2 1.3l-2.2.6-1.8-.5-2.4-.2-.7-.6-.7-.7-1.3-.6-1.5-.9.2-1.1-2-.2-1.9-.2-1.7-.7v-2.9l-.4-3.2-.2-1.5-.1-1.8-2-.1-10.6.1-1.9.3-.7.4s-.9.5-2.4.7l-3.2.3H167l-3.9.3-.2.4-.6 1.5-.4 3.1-.1 1.5-2.2 1.7s-.6.5-1.4.7l-2 .6-2.6 1-.3.9-.8 1.3-2.1 1.5-1.9-.9L147 61l-2.1-1.5-1.4-.1c-.1 0-1-.1-1.5-1l-1-1.7-1-.7s-1.1-.7-2.9-.7l-4.3-.2-1.2.6-1.9 1.8-1.9-.6-.5-1.3-.3-1.6c0-.1-.1-.2-.3-.2l-2.7.2-4.8-.3-.8.6-1.5 2.3-1.7 1.6-.2 1-.2 4.7-.7.6s-.6.5-1.3.8l-2.9 1.2z" class="E"/><path d="M88.5 88.9c.5.4 1 .7 1.5.9.5.3 1.1.5 1.6.6.6.2 1.2.3 1.8.4.7.1 1.4.1 2.1.1s1.3 0 1.9-.1l1.6-.3c.5-.1 1-.3 1.5-.5s.9-.5 1.4-.7v.6c-.9.6-1.9 1-2.9 1.2s-2.2.3-3.4.3c-1.7 0-3.1-.2-4.2-.6s-2.1-1-2.9-1.9" class="D"/><path d="M7.3 72.8v5.6h3v-3.5h6.4v12.5h-4.5v2.1h12.1v-2.1h-4.5V74.9h6.4v3.5h3v-5.6z" class="E"/><path d="M25.3 90.5v-2.4h.6V91H13v-.5zm-4.6-14.6h4.9v.5h-4.3v10.2h-.6zm6.3 3.5h3.2v-6h.5v6.5H27zm11.9 5.5c.4.5.9.9 1.6 1.2.6.3 1.3.6 2.1.7l-1.9-.9c-.5-.4-1-.8-1.4-1.3s-.7-1-.9-1.5-.3-1.1-.3-1.7c0-.7.1-1.4.4-2.1s.6-1.2 1.1-1.7 1.1-.9 1.8-1.2 1.6-.4 2.5-.4 1.8.1 2.6.4 1.7.8 2.5 1.4c-.5-.8-1.2-1.4-2-1.8-.9-.4-1.9-.6-3-.6-1 0-1.9.2-2.7.5s-1.5.7-2 1.3c-.5.5-1 1.2-1.2 1.9-.3.7-.4 1.5-.4 2.3 0 .7.1 1.3.3 1.9.1.6.4 1.1.9 1.6" class="D"/><path d="M39.9 89.4c1.3.4 2.7.5 4.1.5 1.7 0 3.2-.2 4.5-.7s2.4-1.1 3.3-1.9 1.6-1.7 2.1-2.8.7-2.2.7-3.4c0-1.3-.2-2.4-.6-3.5s-1.1-2-1.9-2.8c-.9-.8-2-1.4-3.3-1.9a16.05 16.05 0 0 0-4.7-.7c-1.7 0-3.3.2-4.6.7s-2.5 1.2-3.4 2-1.6 1.8-2.1 2.9-.7 2.3-.7 3.5c0 1.4.3 2.6.9 3.7s1.4 1.9 2.4 2.7c.8.8 2 1.3 3.3 1.7m-2.7-10.9c.4-.8.9-1.6 1.5-2.2.7-.6 1.4-1.1 2.3-1.4s1.9-.5 3-.5 2.1.2 3 .5 1.7.8 2.3 1.3c.6.6 1.1 1.3 1.4 2.1a7.78 7.78 0 0 1 .5 2.8c0 .9-.2 1.7-.5 2.5s-.8 1.5-1.4 2.1-1.4 1.1-2.3 1.5-2 .5-3.2.5c-1 0-2-.1-2.9-.4s-1.7-.7-2.3-1.3c-.7-.6-1.2-1.2-1.5-2-.4-.8-.6-1.7-.6-2.7.1-1 .3-1.9.7-2.8" class="E"/><g class="D"><use xlink:href="#D"/><path d="M70.1 90.5h-10v.5h10.5v-2.9h-.5zm12.6-2.4v2.4h-9.9v.5h10.4v-2.9zm-8.1-11.7c-.2-.1-.5-.2-.8-.3s-.8-.1-1.3-.2h-5.7v3.8h.5v-3.3h5.1c.5 0 .9.1 1.3.1s.7.1.9.2.5.1.6.2c-.2-.2-.4-.4-.6-.5"/></g><path d="M72.2 89.5h9.5v-2.2H79c-.1-.5-.3-1-.6-1.5a7.55 7.55 0 0 0-1.1-1.4c-.4-.5-.8-.9-1.3-1.3s-1-.7-1.4-1c.2 0 .4-.1.5-.1.2 0 .3-.1.5-.1 1.3-.4 2.3-1 2.9-1.8s1-1.7 1-2.7c0-.6-.1-1.1-.2-1.6-.2-.5-.4-.9-.8-1.3a5.02 5.02 0 0 0-1.4-1 5.87 5.87 0 0 0-2-.6c-.7-.1-1.4-.2-2.3-.2-.8 0-1.8-.1-2.8-.1H59v2.2h3.7v12.5h-3.5v2.2H69v-2.2h-3.3v-4.8H70c.7.1 1.3.3 1.9.7.6.3 1.1.7 1.6 1.2.5.4.8.9 1.2 1.4.3.5.6 1 .7 1.5h-3.2v2.2zm1.1-9.2c-.7.1-1.6.2-2.7.2h-4.9V75h6.6c.5 0 1 .1 1.4.2.9.2 1.5.5 1.9 1 .4.4.6.9.6 1.5 0 .4-.1.8-.3 1.2s-.5.6-.9.9c-.4.2-1 .3-1.7.5" class="E"/><path d="M59.8 75.9h2.1v.5h-2.1z" class="D"/><path d="M85.5 81.1a8.33 8.33 0 0 1 .3-2.2c.2-.7.5-1.4.9-2.1a6.55 6.55 0 0 1 1.5-1.8c.6-.6 1.3-1 2.1-1.5.8-.4 1.7-.7 2.6-1 1-.2 2-.3 3.1-.3 1.5 0 2.8.2 3.9.6s2 .9 2.8 1.6v-1.7h3.2v4.8h-3.2c-.4-.5-.9-1-1.3-1.4-.5-.4-1-.7-1.5-1s-1.1-.5-1.8-.6c-.6-.1-1.3-.2-2.1-.2-1.1 0-2.1.2-3 .5-.9.4-1.6.8-2.2 1.4s-1 1.3-1.3 2.1-.5 1.7-.5 2.6c0 1 .2 1.8.5 2.7.3.8.8 1.5 1.4 2.1s1.3 1 2.2 1.4c.9.3 1.9.5 3.1.5 1.1 0 2-.1 2.8-.4.8-.2 1.6-.6 2.1-1a4.28 4.28 0 0 0 1.4-1.6c.3-.6.6-1.3.6-2.1h-5.7V81h8.7v8.5H103v-2.1a6.42 6.42 0 0 1-1.3 1c-.5.3-1 .6-1.6.8s-1.2.4-1.9.5-1.5.2-2.3.2c-1.7 0-3.2-.2-4.5-.7s-2.4-1.1-3.3-1.9-1.6-1.7-2.1-2.8a11.59 11.59 0 0 1-.5-3.4" class="E"/><path d="M90 81.1c0-.8.1-1.6.4-2.3s.7-1.3 1.2-1.8 1.1-.9 1.9-1.2c.7-.3 1.6-.4 2.5-.4.6 0 1.2 0 1.8.1.5.1 1 .2 1.4.4s.8.4 1.1.7l.9.9c-.4-.3-.8-.5-1.2-.7s-.8-.4-1.2-.5l-1.3-.3c-.5-.1-.9-.1-1.5-.1-.9 0-1.6.1-2.3.4s-1.3.7-1.7 1.1c-.5.5-.8 1-1.1 1.7-.2.6-.4 1.3-.4 2 0 .6.1 1.2.3 1.8a5.3 5.3 0 0 0 .8 1.5c.4.5.9.9 1.5 1.3s1.3.7 2.2 1c-.8-.1-1.6-.4-2.2-.7-.7-.3-1.2-.7-1.7-1.2s-.8-1-1-1.7c-.3-.5-.4-1.2-.4-2m8.3 2.6h4.1c0 .1 0 .1-.1.2 0 .1-.1.2-.1.3h-4v-.5zm5.2-5.1h3.4v-5.1h.5v5.6h-3.9zm3.8 11.9v-8.8h.5V91H104v-.5z" class="D"/><path d="M112.3 87.4h3.6V74.9h-3.6v-2.1h20V78h-3v-3.1h-10.2v5.3h6.8v1.7h-6.8v5.5h10.2v-3.1h3v5.2h-20z" class="E"/><path d="M112.6 75.9h2.3v.5h-2.3zm20.7 14.6V85h.5v6h-20.7v-.5zm-13.2-14.6h8.6v.5h-8.1v3h-.5zm0 7h6.7v-2h.6v2.5h-6.8v3.2h-.5zm10-3.9h3.2v-5.6h.5v6.1h-3.7z" class="D"/><path d="M138.8 87.4h3.4V74.9h-3.7v-2.1h7.9L158.2 85V74.9h-3.7v-2.1h10.4v2.1h-3.7v14.6h-2.9l-13.1-13.9v11.8h3.6v2.1h-10z" class="E"/><path d="M149.8 90.5v-2.4h.5V91h-10.7v-.5zm-3.6-3.9h.5v-8.5l-.5-.6zm2.8-13.2l8.7 8.8v.8l-9.4-9.6zm6.4 2.5h2.3v.5h-2.3zm6.8 14.6V75.9h3.6v-2.5h.6v3h-3.7V91h-3.6v-.5z" class="D"/><path d="M169.8 84.7h2.8c1.2 1.1 2.5 1.9 3.8 2.4 1.4.5 2.8.7 4.3.7.6 0 1.2-.1 1.8-.2.5-.1 1-.3 1.4-.5a2.36 2.36 0 0 0 .9-.8 1.69 1.69 0 0 0 .3-1c0-.4-.1-.8-.4-1.1s-.7-.6-1.2-.9c-.6-.3-1.3-.5-2.1-.7-.9-.2-1.9-.4-3.1-.5-1.4-.1-2.6-.4-3.6-.7s-1.8-.7-2.4-1.2-1.1-1-1.4-1.6-.4-1.2-.4-1.8.2-1.2.5-1.7c.3-.6.8-1 1.5-1.5.7-.4 1.5-.8 2.5-1 1-.3 2.2-.4 3.5-.4.8 0 1.5.1 2.1.2s1.2.3 1.8.5c.5.2 1 .5 1.5.7.5.3.9.6 1.3.9v-1.8h3v4.8h-3c-.3-.4-.6-.9-1.1-1.3-.4-.4-.9-.7-1.5-1s-1.2-.5-1.8-.7c-.7-.2-1.4-.2-2.1-.2-.8 0-1.4.1-2 .2a5.27 5.27 0 0 0-1.5.5c-.4.2-.7.5-.9.7-.2.3-.3.5-.3.8s.1.6.3.9a2.36 2.36 0 0 0 .9.8c.4.3 1.1.5 1.8.7.8.2 1.7.4 2.9.5 1.7.2 3 .5 4.2.8 1.1.3 2 .7 2.7 1.1s1.2 1 1.4 1.5c.3.6.4 1.3.4 2 0 .6-.2 1.1-.5 1.7s-.8 1.1-1.4 1.5c-.6.5-1.4.8-2.3 1.1s-2.1.4-3.3.4c-.8 0-1.6-.1-2.3-.2s-1.4-.3-2.1-.5-1.3-.5-2-.7c-.6-.3-1.3-.6-1.9-1v2h-3v-4.4z" class="E"/><path d="M173.8 90.5v-1.3c1.1.6 2.2 1 3.4 1.3s2.5.4 3.9.4a17.33 17.33 0 0 0 3.2-.3c1-.2 1.9-.6 2.7-1.1s1.4-1.1 1.9-1.8.7-1.5.7-2.5c0-.6-.1-1.1-.2-1.6s-.4-.9-.7-1.4c.2.2.4.3.6.6.2.2.3.5.5.7l.3.8c.1.3.1.6.1.9 0 1-.2 1.9-.7 2.6a5.75 5.75 0 0 1-1.9 1.9c-.8.5-1.8.9-2.9 1.2s-2.3.4-3.5.4c-1.4 0-2.7-.1-3.8-.4-1.1-.2-2.1-.6-3-1v1h-3.8v-.5h3.2zm-3.1-10.4c.3.4.7.7 1.1 1.1a5.3 5.3 0 0 0 1.5.8c.6.2 1.3.5 2 .6.8.2 1.7.3 2.7.4s1.9.2 2.6.4c.7.1 1.3.3 1.8.4s.8.3 1.1.5.4.4.5.7c-.3-.2-.5-.3-.8-.4s-.7-.2-1.1-.3l-1.7-.3-2.6-.4c-1.1-.1-2.1-.3-2.9-.6-.8-.2-1.6-.5-2.2-.8a5.02 5.02 0 0 1-1.4-1c-.3-.3-.5-.7-.6-1.1m4.4-3.4a.55.55 0 0 1 .3-.5c.2-.2.5-.3.8-.4s.7-.2 1.2-.3 1-.1 1.5-.1c.8 0 1.6.1 2.3.4s1.3.6 1.7 1l-.8-.3-1-.3c-.3-.1-.7-.2-1.1-.2s-.7-.1-1.1-.1a14.36 14.36 0 0 0-2.4.2c-.6.2-1.1.4-1.4.6m10.8 1.9h3.2v-5.1h.6v5.6h-3.8zm13.5 6.3c.4.5.9.9 1.6 1.2.6.3 1.3.6 2.1.7l-1.9-.9c-.5-.4-1-.8-1.4-1.3s-.7-1-.9-1.5-.3-1.1-.3-1.7c0-.7.1-1.4.4-2.1s.6-1.2 1.1-1.7 1.1-.9 1.8-1.2 1.6-.4 2.5-.4 1.8.1 2.6.4 1.7.8 2.5 1.4c-.6-.8-1.3-1.3-2.2-1.8-.9-.4-1.9-.6-3-.6-1 0-1.9.2-2.7.5s-1.5.7-2 1.3c-.5.5-1 1.2-1.2 1.9-.3.7-.4 1.5-.4 2.3 0 .7.1 1.3.3 1.9l1.1 1.6" class="D"/><path d="M200.4 89.4c1.3.4 2.7.5 4.1.5 1.7 0 3.2-.2 4.5-.7s2.4-1.1 3.3-1.9 1.6-1.7 2.1-2.8.7-2.2.7-3.4c0-1.3-.2-2.4-.6-3.5s-1.1-2-1.9-2.8c-.9-.8-2-1.4-3.3-1.9a16.05 16.05 0 0 0-4.7-.7c-1.7 0-3.3.2-4.6.7s-2.5 1.2-3.4 2-1.6 1.8-2.1 2.9-.7 2.3-.7 3.5c0 1.4.3 2.6.9 3.7s1.4 1.9 2.4 2.7c.9.8 2 1.3 3.3 1.7m-2.7-10.9c.4-.8.9-1.6 1.5-2.2s1.4-1.1 2.3-1.4 1.9-.5 3-.5 2.1.2 3 .5 1.7.8 2.3 1.3c.6.6 1.1 1.3 1.4 2.1a7.78 7.78 0 0 1 .5 2.8c0 .9-.2 1.7-.5 2.5s-.8 1.5-1.4 2.1-1.4 1.1-2.3 1.5-2 .5-3.2.5c-1 0-2-.1-2.9-.4s-1.7-.7-2.3-1.3c-.7-.6-1.2-1.2-1.5-2-.4-.8-.6-1.7-.6-2.7.2-1 .3-1.9.7-2.8" class="E"/><g class="D"><use xlink:href="#D" x="160.5"/><path d="M8 79.3h3.2v-3.5h4.9v.5h-4.4v3.6H8zm131-3.4h2.3v.5H139zm-72.1 7.7h1.6c.8 0 1.6.1 2.2.2s1.1.3 1.4.7c-.2-.1-.5-.1-.7-.2-.2 0-.5-.1-.8-.1s-.6-.1-1-.1h-2.1v2.3H67v-2.8zm9.7-1.1c.7-.2 1.2-.4 1.8-.8.5-.3 1-.7 1.3-1.1.4-.4.6-.9.8-1.4a4.53 4.53 0 0 0 .3-1.6c0-.4 0-.8-.1-1.2s-.2-.7-.5-1.1c-.2-.3-.5-.7-.9-1-.3-.3-.8-.6-1.3-.9.6.2 1.1.5 1.6.8.4.3.8.6 1.1 1s.5.7.6 1.1.2.8.2 1.2c0 .5-.1 1-.2 1.5-.2.5-.4 1-.7 1.4s-.7.9-1.2 1.2c-.5.4-1 .7-1.7 1 .3.2.6.5.9.8s.6.7.8 1c.3.4.5.7.7 1.1s.4.7.5 1h-.7c-.1-.4-.3-.7-.5-1.1s-.5-.8-.7-1.1c-.3-.4-.6-.7-.9-1l-1.2-.8z"/></g><path d="M220.3 87.5h3.4V75H220v-2.1h7.9l11.8 12.2V75h-3.6v-2.1h10.3V75h-3.7v14.6h-2.9l-13.1-13.9v11.8h3.6v2.1h-10z" class="E"/><path d="M231.3 90.6v-2.4h.6v2.9h-10.8v-.5zm-3.6-3.9h.5v-8.6l-.5-.5zm2.8-13.2l8.7 8.8v.7l-9.4-9.5zm6.4 2.5h2.3v.5h-2.3zm6.8 14.6V76h3.6v-2.5h.6v3h-3.7v14.6h-3.5v-.5zM220.5 76h2.3v.5h-2.3zM23.2 117.3h1.3l-.2 18.4c0 2.8 3 3.5 3.1 3.5l96.4 18.8c3.4.7 7 0 7 0l97-18.5c3.1-.6 3.2-3.4 3.2-3.5l.2-18.7h1.3l-.2 18.7c0 1.3-.9 4-4.2 4.6l-97 18.5c-.2 0-3.8.7-7.5 0L27 140.3c-1.4-.3-4.1-1.6-4.1-4.6l.3-18.4z" class="D"/><defs ><path id="B" d="M138.4 131.7v-2.8c0-1.8.1-3.5-.3-4l.1-.2 2.2-.1c1.2 0 2.6.4 2.6 2.1 0 .9-.7 1.7-1.6 2 .3.1 2.4 2.6 2.7 2.8h-1.6c-.4-.8-1.6-1.9-2.3-2.6-.2 0-.4 0-.6-.1l.1 2.7h-1.3zm3.5-4.7c0-1.4-1-1.8-1.7-1.8h-.6v3.1c.2.1.4.1.7.1.9.1 1.6-.5 1.6-1.4"/><path id="C" d="M148.9 131.7v-3.2c-.1-.1-.1-.1-.2-.3l-1.1-1.8c-.7-1.1-.7-1.3-1.1-1.5l.1-.2c.2-.1.5-.1.8-.1s.5.1.7.2c.4.8 1.3 2.5 1.7 3l.2-.4 1-1.6c.2-.3.2-.6 0-.9l.1-.2c.2-.1.5-.1.7-.1s.4.1.6.1c0 .3-.4 1.1-.7 1.4l-1.4 2.1v1.6c0 .7 0 1.4.1 1.8h-1.5z"/><path id="D" d="M55.8 78.7c-.2-.8-.5-1.5-.9-2.2a6.55 6.55 0 0 0-1.5-1.8c-.6-.5-1.3-1-2-1.3.7.4 1.2.9 1.8 1.5.5.6 1 1.2 1.3 1.9.4.7.7 1.4.9 2.1a8.33 8.33 0 0 1 .3 2.2c0 1.5-.3 2.8-.9 4s-1.4 2.2-2.4 3.1c-1 .8-2.2 1.5-3.7 2-1.4.5-2.9.7-4.6.7-.8 0-1.5-.1-2.2-.2s-1.4-.3-2.1-.5-1.3-.4-1.9-.7l-1.6-.9c.9.9 2 1.6 3.3 2.1s2.8.7 4.5.7c1.8 0 3.5-.2 5-.7s2.8-1.2 3.8-2.1a8.2 8.2 0 0 0 2.4-3.2 9.9 9.9 0 0 0 .9-4.2l-.4-2.5"/></defs></svg>